<svg width="228" height="228" viewBox="0 0 228 228" fill="none" xmlns="http://www.w3.org/2000/svg">
<rect width="228" height="228" fill="#EDEDF4"/>
<path d="M32.0039 148.917C30.1831 148.681 28.5207 147.529 27.6727 145.917C26.8562 144.365 26.7778 142.476 27.4658 140.931C27.5881 140.656 33.4083 131.46 40.3995 120.495C47.3907 109.53 55.6904 96.5121 58.8432 91.5666C61.9961 86.6211 64.6731 82.3351 64.7922 82.0422C65.2329 80.9584 65.1349 79.6195 64.5385 78.5782C64.2192 78.0207 63.4472 77.2667 62.9209 76.9985C61.9766 76.5173 62.5327 76.5349 48.2678 76.5332C33.5006 76.5332 34.3779 76.5684 32.9929 75.8865C30.5683 74.6925 29.2819 71.7611 30.0448 69.1681C30.4715 67.7177 31.6822 66.2568 32.9898 65.6145C34.3493 64.9468 32.2714 64.9955 58.3286 65.0216L81.7677 65.0451L82.3587 65.2471C84.1207 65.8492 85.5616 67.3059 86.112 69.0415C86.2738 69.5515 86.3137 69.8929 86.3136 70.7672C86.3133 71.9576 86.1342 72.7096 85.6536 73.5374C85.5231 73.7622 77.1527 86.9025 67.0526 102.738C56.9525 118.574 48.6094 131.709 48.5125 131.928C48.2836 132.444 48.2051 133.58 48.354 134.22C48.6374 135.436 49.4726 136.466 50.6173 137.013L51.3099 137.343L66.357 137.39C83.17 137.442 81.7492 137.383 83.177 138.092C84.0798 138.54 85.0917 139.538 85.568 140.449C86.9754 143.143 86.1783 146.332 83.6805 148.001C82.9105 148.516 82.1522 148.794 81.1768 148.92C80.3361 149.029 32.8449 149.025 32.0039 148.916V148.917ZM156.294 148.879C155.55 148.743 154.48 148.271 153.88 147.813C153.263 147.342 152.57 146.496 152.226 145.793C151.584 144.481 151.635 148.028 151.661 106.776L151.684 69.4959L151.932 68.8168C152.242 67.9705 152.87 67.0408 153.537 66.4428C154.15 65.8935 155.472 65.2311 156.224 65.0965C156.594 65.0304 162.924 65 176.371 65C195.599 65 195.992 65.0044 196.68 65.1795C197.744 65.4513 198.4 65.8397 199.285 66.7221C199.881 67.316 200.141 67.6573 200.394 68.1789C201.063 69.5587 201.171 71.1608 200.691 72.5885C200.386 73.4973 200.095 73.9826 199.435 74.688C198.747 75.4224 197.969 75.9296 197.053 76.2418L196.325 76.4895L182.824 76.5359C170.035 76.5797 169.296 76.5909 168.823 76.7489C166.815 77.4186 165.231 79.0825 164.78 80.9958C164.577 81.8562 164.575 95.8218 164.778 96.6814C165.265 98.746 166.947 100.43 169.06 100.97C169.738 101.143 170.112 101.149 180.634 101.151C192.782 101.151 192.178 101.122 193.549 101.797C194.932 102.478 196.054 103.829 196.518 105.372C196.781 106.247 196.742 107.804 196.434 108.733C195.873 110.422 194.441 111.857 192.734 112.437L192.143 112.638L180.778 112.684L169.413 112.729L168.63 113.01C167.094 113.559 165.934 114.56 165.272 115.908C164.615 117.244 164.64 116.886 164.64 125.041C164.64 131.984 164.649 132.4 164.816 133.051C165.345 135.119 166.883 136.649 169.05 137.264C169.554 137.407 170.563 137.417 182.324 137.396C191.412 137.379 195.284 137.402 195.862 137.476C198.399 137.799 200.365 139.592 200.865 142.04C201.045 142.922 201.045 143.482 200.865 144.351C200.436 146.429 199.008 148.029 196.969 148.72L196.235 148.969L176.596 148.984C160.582 148.997 156.835 148.977 156.294 148.879ZM117.817 148.861C117.319 148.778 116.377 148.432 115.817 148.127C115.037 147.702 113.77 146.437 113.339 145.654C113.161 145.329 112.919 144.777 112.802 144.428L112.589 143.792L112.542 112.593C112.499 84.1928 112.482 81.3521 112.348 80.9254C111.7 78.8593 110.441 77.5233 108.497 76.8368L107.771 76.5804L101.588 76.5312C95.9322 76.4862 95.363 76.4679 94.9055 76.3166C92.8545 75.6383 91.3511 74.0273 90.9024 72.0269C90.7618 71.4004 90.7871 69.947 90.9497 69.3143C91.4169 67.4952 92.7782 66.0136 94.6327 65.3057L95.3147 65.0454L118.635 65.0194C135.087 65.0011 142.13 65.0237 142.547 65.092C143.343 65.2247 144.644 65.8679 145.293 66.4496C145.975 67.0608 146.641 68.0703 146.917 68.9099C147.108 69.4934 147.138 69.7555 147.137 70.8127C147.135 71.8621 147.105 72.124 146.924 72.6293C146.316 74.3322 144.916 75.7007 143.183 76.2848C142.605 76.4799 142.465 76.4852 136.41 76.5359C129.529 76.5936 129.91 76.5589 128.598 77.2445C127.295 77.9246 126.234 79.2174 125.715 80.7582C125.613 81.059 125.584 86.4938 125.546 112.32C125.502 141.934 125.491 143.547 125.337 144.064C124.63 146.435 122.894 148.176 120.671 148.744C120.008 148.914 118.502 148.975 117.817 148.861Z" fill="#00BFFE"/>
</svg>
